<svg width="67" height="18" viewBox="0 0 67 18" fill="none" xmlns="http://www.w3.org/2000/svg">
<path d="M2.50426 14.0001V3.81824H4.34872V12.4539H8.8331V14.0001H2.50426ZM13.4054 14.1492C12.6596 14.1492 12.0133 13.9851 11.4664 13.657C10.9196 13.3289 10.4953 12.8699 10.1937 12.2799C9.89543 11.6899 9.74628 11.0005 9.74628 10.2117C9.74628 9.42288 9.89543 8.73183 10.1937 8.13856C10.4953 7.54528 10.9196 7.08458 11.4664 6.75645C12.0133 6.42833 12.6596 6.26427 13.4054 6.26427C14.1511 6.26427 14.7974 6.42833 15.3443 6.75645C15.8912 7.08458 16.3138 7.54528 16.612 8.13856C16.9137 8.73183 17.0645 9.42288 17.0645 10.2117C17.0645 11.0005 16.9137 11.6899 16.612 12.2799C16.3138 12.8699 15.8912 13.3289 15.3443 13.657C14.7974 13.9851 14.1511 14.1492 13.4054 14.1492ZM13.4153 12.7074C13.8197 12.7074 14.1577 12.5964 14.4295 12.3744C14.7013 12.149 14.9035 11.8474 15.0361 11.4695C15.1719 11.0917 15.2399 10.6708 15.2399 10.2067C15.2399 9.73941 15.1719 9.31682 15.0361 8.93898C14.9035 8.55783 14.7013 8.25456 14.4295 8.02918C14.1577 7.8038 13.8197 7.69111 13.4153 7.69111C13.001 7.69111 12.6563 7.8038 12.3812 8.02918C12.1094 8.25456 11.9056 8.55783 11.7697 8.93898C11.6371 9.31682 11.5709 9.73941 11.5709 10.2067C11.5709 10.6708 11.6371 11.0917 11.7697 11.4695C11.9056 11.8474 12.1094 12.149 12.3812 12.3744C12.6563 12.5964 13.001 12.7074 13.4153 12.7074ZM21.633 17.0228C20.9867 17.0228 20.4315 16.935 19.9675 16.7593C19.5035 16.5869 19.1306 16.3549 18.8489 16.0633C18.5672 15.7716 18.3716 15.4485 18.2623 15.0938L19.883 14.7011C19.9559 14.8502 20.062 14.9977 20.2012 15.1435C20.3404 15.2927 20.5277 15.4153 20.763 15.5114C21.0016 15.6109 21.3016 15.6606 21.6628 15.6606C22.1733 15.6606 22.5958 15.5363 22.9306 15.2877C23.2653 15.0424 23.4327 14.6381 23.4327 14.0746V12.6279H23.3432C23.2504 12.8135 23.1145 13.0041 22.9356 13.1996C22.7599 13.3952 22.5262 13.5592 22.2346 13.6918C21.9462 13.8244 21.5833 13.8907 21.1458 13.8907C20.5591 13.8907 20.0272 13.7531 19.5499 13.478C19.0759 13.1996 18.6981 12.7853 18.4164 12.2351C18.138 11.6816 17.9988 10.9889 17.9988 10.157C17.9988 9.31848 18.138 8.61086 18.4164 8.03415C18.6981 7.45413 19.0776 7.01498 19.5549 6.71668C20.0322 6.41507 20.5641 6.26427 21.1508 6.26427C21.5982 6.26427 21.9661 6.3405 22.2545 6.49296C22.5461 6.64211 22.7781 6.82274 22.9505 7.03486C23.1228 7.24367 23.2537 7.44088 23.3432 7.62648H23.4427V6.3637H25.2175V14.1244C25.2175 14.7773 25.0617 15.3175 24.7502 15.7451C24.4386 16.1726 24.0127 16.4925 23.4725 16.7046C22.9322 16.9167 22.3191 17.0228 21.633 17.0228ZM21.6479 12.4788C22.0291 12.4788 22.3539 12.386 22.6224 12.2003C22.8908 12.0147 23.0947 11.7479 23.2339 11.3999C23.3731 11.0519 23.4427 10.6343 23.4427 10.1471C23.4427 9.66649 23.3731 9.24556 23.2339 8.88429C23.098 8.52302 22.8958 8.24296 22.6273 8.04409C22.3622 7.84192 22.0357 7.74083 21.6479 7.74083C21.2469 7.74083 20.9121 7.84523 20.6437 8.05404C20.3752 8.26284 20.173 8.54954 20.0371 8.91412C19.9012 9.27539 19.8333 9.68638 19.8333 10.1471C19.8333 10.6144 19.9012 11.0237 20.0371 11.3751C20.1763 11.7231 20.3802 11.9949 20.6486 12.1904C20.9204 12.3826 21.2535 12.4788 21.6479 12.4788ZM29.9746 14.0001V6.3637H31.7744V14.0001H29.9746ZM30.8795 5.27989C30.5944 5.27989 30.3492 5.18543 30.1437 4.99651C29.9382 4.80427 29.8354 4.57392 29.8354 4.30546C29.8354 4.03368 29.9382 3.80333 30.1437 3.61441C30.3492 3.42217 30.5944 3.32606 30.8795 3.32606C31.1678 3.32606 31.4131 3.42217 31.6153 3.61441C31.8208 3.80333 31.9235 4.03368 31.9235 4.30546C31.9235 4.57392 31.8208 4.80427 31.6153 4.99651C31.4131 5.18543 31.1678 5.27989 30.8795 5.27989ZM35.1447 9.52563V14.0001H33.345V6.3637H35.0652V7.66128H35.1547C35.3304 7.23373 35.6104 6.894 35.9949 6.64211C36.3827 6.39021 36.8616 6.26427 37.4317 6.26427C37.9587 6.26427 38.4177 6.37695 38.8088 6.60233C39.2032 6.82771 39.5081 7.15418 39.7236 7.58174C39.9423 8.00929 40.05 8.528 40.0467 9.13784V14.0001H38.247V9.41625C38.247 8.90584 38.1144 8.50645 37.8493 8.2181C37.5875 7.92975 37.2245 7.78557 36.7605 7.78557C36.4456 7.78557 36.1656 7.85517 35.9203 7.99438C35.6784 8.13027 35.4878 8.32748 35.3486 8.586C35.2127 8.84452 35.1447 9.15773 35.1447 9.52563Z" fill="#3E85F3"/>
<path d="M2.50426 14.0001V3.81824H4.34872V12.4539H8.8331V14.0001H2.50426ZM13.4054 14.1492C12.6596 14.1492 12.0133 13.9851 11.4664 13.657C10.9196 13.3289 10.4953 12.8699 10.1937 12.2799C9.89543 11.6899 9.74628 11.0005 9.74628 10.2117C9.74628 9.42288 9.89543 8.73183 10.1937 8.13856C10.4953 7.54528 10.9196 7.08458 11.4664 6.75645C12.0133 6.42833 12.6596 6.26427 13.4054 6.26427C14.1511 6.26427 14.7974 6.42833 15.3443 6.75645C15.8912 7.08458 16.3138 7.54528 16.612 8.13856C16.9137 8.73183 17.0645 9.42288 17.0645 10.2117C17.0645 11.0005 16.9137 11.6899 16.612 12.2799C16.3138 12.8699 15.8912 13.3289 15.3443 13.657C14.7974 13.9851 14.1511 14.1492 13.4054 14.1492ZM13.4153 12.7074C13.8197 12.7074 14.1577 12.5964 14.4295 12.3744C14.7013 12.149 14.9035 11.8474 15.0361 11.4695C15.1719 11.0917 15.2399 10.6708 15.2399 10.2067C15.2399 9.73941 15.1719 9.31682 15.0361 8.93898C14.9035 8.55783 14.7013 8.25456 14.4295 8.02918C14.1577 7.8038 13.8197 7.69111 13.4153 7.69111C13.001 7.69111 12.6563 7.8038 12.3812 8.02918C12.1094 8.25456 11.9056 8.55783 11.7697 8.93898C11.6371 9.31682 11.5709 9.73941 11.5709 10.2067C11.5709 10.6708 11.6371 11.0917 11.7697 11.4695C11.9056 11.8474 12.1094 12.149 12.3812 12.3744C12.6563 12.5964 13.001 12.7074 13.4153 12.7074ZM21.633 17.0228C20.9867 17.0228 20.4315 16.935 19.9675 16.7593C19.5035 16.5869 19.1306 16.3549 18.8489 16.0633C18.5672 15.7716 18.3716 15.4485 18.2623 15.0938L19.883 14.7011C19.9559 14.8502 20.062 14.9977 20.2012 15.1435C20.3404 15.2927 20.5277 15.4153 20.763 15.5114C21.0016 15.6109 21.3016 15.6606 21.6628 15.6606C22.1733 15.6606 22.5958 15.5363 22.9306 15.2877C23.2653 15.0424 23.4327 14.6381 23.4327 14.0746V12.6279H23.3432C23.2504 12.8135 23.1145 13.0041 22.9356 13.1996C22.7599 13.3952 22.5262 13.5592 22.2346 13.6918C21.9462 13.8244 21.5833 13.8907 21.1458 13.8907C20.5591 13.8907 20.0272 13.7531 19.5499 13.478C19.0759 13.1996 18.6981 12.7853 18.4164 12.2351C18.138 11.6816 17.9988 10.9889 17.9988 10.157C17.9988 9.31848 18.138 8.61086 18.4164 8.03415C18.6981 7.45413 19.0776 7.01498 19.5549 6.71668C20.0322 6.41507 20.5641 6.26427 21.1508 6.26427C21.5982 6.26427 21.9661 6.3405 22.2545 6.49296C22.5461 6.64211 22.7781 6.82274 22.9505 7.03486C23.1228 7.24367 23.2537 7.44088 23.3432 7.62648H23.4427V6.3637H25.2175V14.1244C25.2175 14.7773 25.0617 15.3175 24.7502 15.7451C24.4386 16.1726 24.0127 16.4925 23.4725 16.7046C22.9322 16.9167 22.3191 17.0228 21.633 17.0228ZM21.6479 12.4788C22.0291 12.4788 22.3539 12.386 22.6224 12.2003C22.8908 12.0147 23.0947 11.7479 23.2339 11.3999C23.3731 11.0519 23.4427 10.6343 23.4427 10.1471C23.4427 9.66649 23.3731 9.24556 23.2339 8.88429C23.098 8.52302 22.8958 8.24296 22.6273 8.04409C22.3622 7.84192 22.0357 7.74083 21.6479 7.74083C21.2469 7.74083 20.9121 7.84523 20.6437 8.05404C20.3752 8.26284 20.173 8.54954 20.0371 8.91412C19.9012 9.27539 19.8333 9.68638 19.8333 10.1471C19.8333 10.6144 19.9012 11.0237 20.0371 11.3751C20.1763 11.7231 20.3802 11.9949 20.6486 12.1904C20.9204 12.3826 21.2535 12.4788 21.6479 12.4788ZM29.9746 14.0001V6.3637H31.7744V14.0001H29.9746ZM30.8795 5.27989C30.5944 5.27989 30.3492 5.18543 30.1437 4.99651C29.9382 4.80427 29.8354 4.57392 29.8354 4.30546C29.8354 4.03368 29.9382 3.80333 30.1437 3.61441C30.3492 3.42217 30.5944 3.32606 30.8795 3.32606C31.1678 3.32606 31.4131 3.42217 31.6153 3.61441C31.8208 3.80333 31.9235 4.03368 31.9235 4.30546C31.9235 4.57392 31.8208 4.80427 31.6153 4.99651C31.4131 5.18543 31.1678 5.27989 30.8795 5.27989ZM35.1447 9.52563V14.0001H33.345V6.3637H35.0652V7.66128H35.1547C35.3304 7.23373 35.6104 6.894 35.9949 6.64211C36.3827 6.39021 36.8616 6.26427 37.4317 6.26427C37.9587 6.26427 38.4177 6.37695 38.8088 6.60233C39.2032 6.82771 39.5081 7.15418 39.7236 7.58174C39.9423 8.00929 40.05 8.528 40.0467 9.13784V14.0001H38.247V9.41625C38.247 8.90584 38.1144 8.50645 37.8493 8.2181C37.5875 7.92975 37.2245 7.78557 36.7605 7.78557C36.4456 7.78557 36.1656 7.85517 35.9203 7.99438C35.6784 8.13027 35.4878 8.32748 35.3486 8.586C35.2127 8.84452 35.1447 9.15773 35.1447 9.52563Z" fill="#3E85F3"/>
<path d="M2.50426 14.0001V3.81824H4.34872V12.4539H8.8331V14.0001H2.50426ZM13.4054 14.1492C12.6596 14.1492 12.0133 13.9851 11.4664 13.657C10.9196 13.3289 10.4953 12.8699 10.1937 12.2799C9.89543 11.6899 9.74628 11.0005 9.74628 10.2117C9.74628 9.42288 9.89543 8.73183 10.1937 8.13856C10.4953 7.54528 10.9196 7.08458 11.4664 6.75645C12.0133 6.42833 12.6596 6.26427 13.4054 6.26427C14.1511 6.26427 14.7974 6.42833 15.3443 6.75645C15.8912 7.08458 16.3138 7.54528 16.612 8.13856C16.9137 8.73183 17.0645 9.42288 17.0645 10.2117C17.0645 11.0005 16.9137 11.6899 16.612 12.2799C16.3138 12.8699 15.8912 13.3289 15.3443 13.657C14.7974 13.9851 14.1511 14.1492 13.4054 14.1492ZM13.4153 12.7074C13.8197 12.7074 14.1577 12.5964 14.4295 12.3744C14.7013 12.149 14.9035 11.8474 15.0361 11.4695C15.1719 11.0917 15.2399 10.6708 15.2399 10.2067C15.2399 9.73941 15.1719 9.31682 15.0361 8.93898C14.9035 8.55783 14.7013 8.25456 14.4295 8.02918C14.1577 7.8038 13.8197 7.69111 13.4153 7.69111C13.001 7.69111 12.6563 7.8038 12.3812 8.02918C12.1094 8.25456 11.9056 8.55783 11.7697 8.93898C11.6371 9.31682 11.5709 9.73941 11.5709 10.2067C11.5709 10.6708 11.6371 11.0917 11.7697 11.4695C11.9056 11.8474 12.1094 12.149 12.3812 12.3744C12.6563 12.5964 13.001 12.7074 13.4153 12.7074ZM21.633 17.0228C20.9867 17.0228 20.4315 16.935 19.9675 16.7593C19.5035 16.5869 19.1306 16.3549 18.8489 16.0633C18.5672 15.7716 18.3716 15.4485 18.2623 15.0938L19.883 14.7011C19.9559 14.8502 20.062 14.9977 20.2012 15.1435C20.3404 15.2927 20.5277 15.4153 20.763 15.5114C21.0016 15.6109 21.3016 15.6606 21.6628 15.6606C22.1733 15.6606 22.5958 15.5363 22.9306 15.2877C23.2653 15.0424 23.4327 14.6381 23.4327 14.0746V12.6279H23.3432C23.2504 12.8135 23.1145 13.0041 22.9356 13.1996C22.7599 13.3952 22.5262 13.5592 22.2346 13.6918C21.9462 13.8244 21.5833 13.8907 21.1458 13.8907C20.5591 13.8907 20.0272 13.7531 19.5499 13.478C19.0759 13.1996 18.6981 12.7853 18.4164 12.2351C18.138 11.6816 17.9988 10.9889 17.9988 10.157C17.9988 9.31848 18.138 8.61086 18.4164 8.03415C18.6981 7.45413 19.0776 7.01498 19.5549 6.71668C20.0322 6.41507 20.5641 6.26427 21.1508 6.26427C21.5982 6.26427 21.9661 6.3405 22.2545 6.49296C22.5461 6.64211 22.7781 6.82274 22.9505 7.03486C23.1228 7.24367 23.2537 7.44088 23.3432 7.62648H23.4427V6.3637H25.2175V14.1244C25.2175 14.7773 25.0617 15.3175 24.7502 15.7451C24.4386 16.1726 24.0127 16.4925 23.4725 16.7046C22.9322 16.9167 22.3191 17.0228 21.633 17.0228ZM21.6479 12.4788C22.0291 12.4788 22.3539 12.386 22.6224 12.2003C22.8908 12.0147 23.0947 11.7479 23.2339 11.3999C23.3731 11.0519 23.4427 10.6343 23.4427 10.1471C23.4427 9.66649 23.3731 9.24556 23.2339 8.88429C23.098 8.52302 22.8958 8.24296 22.6273 8.04409C22.3622 7.84192 22.0357 7.74083 21.6479 7.74083C21.2469 7.74083 20.9121 7.84523 20.6437 8.05404C20.3752 8.26284 20.173 8.54954 20.0371 8.91412C19.9012 9.27539 19.8333 9.68638 19.8333 10.1471C19.8333 10.6144 19.9012 11.0237 20.0371 11.3751C20.1763 11.7231 20.3802 11.9949 20.6486 12.1904C20.9204 12.3826 21.2535 12.4788 21.6479 12.4788ZM29.9746 14.0001V6.3637H31.7744V14.0001H29.9746ZM30.8795 5.27989C30.5944 5.27989 30.3492 5.18543 30.1437 4.99651C29.9382 4.80427 29.8354 4.57392 29.8354 4.30546C29.8354 4.03368 29.9382 3.80333 30.1437 3.61441C30.3492 3.42217 30.5944 3.32606 30.8795 3.32606C31.1678 3.32606 31.4131 3.42217 31.6153 3.61441C31.8208 3.80333 31.9235 4.03368 31.9235 4.30546C31.9235 4.57392 31.8208 4.80427 31.6153 4.99651C31.4131 5.18543 31.1678 5.27989 30.8795 5.27989ZM35.1447 9.52563V14.0001H33.345V6.3637H35.0652V7.66128H35.1547C35.3304 7.23373 35.6104 6.894 35.9949 6.64211C36.3827 6.39021 36.8616 6.26427 37.4317 6.26427C37.9587 6.26427 38.4177 6.37695 38.8088 6.60233C39.2032 6.82771 39.5081 7.15418 39.7236 7.58174C39.9423 8.00929 40.05 8.528 40.0467 9.13784V14.0001H38.247V9.41625C38.247 8.90584 38.1144 8.50645 37.8493 8.2181C37.5875 7.92975 37.2245 7.78557 36.7605 7.78557C36.4456 7.78557 36.1656 7.85517 35.9203 7.99438C35.6784 8.13027 35.4878 8.32748 35.3486 8.586C35.2127 8.84452 35.1447 9.15773 35.1447 9.52563Z" fill="#3E85F3"/>
<path d="M58.75 2.25006H59.65C60.9101 2.25006 61.5402 2.25006 62.0215 2.4953C62.4448 2.71101 62.789 3.05522 63.0048 3.47858C63.25 3.95988 63.25 4.58995 63.25 5.85006V12.1501C63.25 13.4102 63.25 14.0402 63.0048 14.5215C62.789 14.9449 62.4448 15.2891 62.0215 15.5048C61.5402 15.7501 60.9101 15.7501 59.65 15.7501H58.75M55 5.25006L58.75 9.00006M58.75 9.00006L55 12.7501M58.75 9.00006L49.75 9.00006" stroke="#3E85F3" stroke-width="1.5" stroke-linecap="round" stroke-linejoin="round"/>
</svg>
